<mxfile host="app.diagrams.net" modified="2022-06-06T13:15:10.535Z" agent="5.0 (Macintosh; Intel Mac OS X 10_15_7) AppleWebKit/537.36 (KHTML, like Gecko) Chrome/102.0.5005.61 Safari/537.36" etag="tQ1DmrCggNbTrTsmoyxB" version="19.0.0" type="github">
  <diagram id="C5RBs43oDa-KdzZeNtuy" name="Page-1">
    <mxGraphModel dx="815" dy="490" grid="1" gridSize="10" guides="1" tooltips="1" connect="1" arrows="1" fold="1" page="1" pageScale="1" pageWidth="1169" pageHeight="1654" math="0" shadow="0">
      <root>
        <mxCell id="WIyWlLk6GJQsqaUBKTNV-0" />
        <mxCell id="WIyWlLk6GJQsqaUBKTNV-1" parent="WIyWlLk6GJQsqaUBKTNV-0" />
        <mxCell id="6KjLCaiSOHF_WMEFXw_d-9" style="edgeStyle=orthogonalEdgeStyle;rounded=0;orthogonalLoop=1;jettySize=auto;html=1;" edge="1" parent="WIyWlLk6GJQsqaUBKTNV-1" source="WIyWlLk6GJQsqaUBKTNV-3" target="6KjLCaiSOHF_WMEFXw_d-1">
          <mxGeometry relative="1" as="geometry" />
        </mxCell>
        <mxCell id="WIyWlLk6GJQsqaUBKTNV-3" value="Aplicação Inicializada" style="rounded=1;whiteSpace=wrap;html=1;fontSize=12;glass=0;strokeWidth=1;shadow=0;" parent="WIyWlLk6GJQsqaUBKTNV-1" vertex="1">
          <mxGeometry x="205" y="170" width="150" height="60" as="geometry" />
        </mxCell>
        <mxCell id="6KjLCaiSOHF_WMEFXw_d-4" value="" style="edgeStyle=orthogonalEdgeStyle;rounded=0;orthogonalLoop=1;jettySize=auto;html=1;" edge="1" parent="WIyWlLk6GJQsqaUBKTNV-1" source="6KjLCaiSOHF_WMEFXw_d-1" target="6KjLCaiSOHF_WMEFXw_d-3">
          <mxGeometry relative="1" as="geometry" />
        </mxCell>
        <mxCell id="6KjLCaiSOHF_WMEFXw_d-6" value="" style="edgeStyle=orthogonalEdgeStyle;rounded=0;orthogonalLoop=1;jettySize=auto;html=1;" edge="1" parent="WIyWlLk6GJQsqaUBKTNV-1" source="6KjLCaiSOHF_WMEFXw_d-1" target="6KjLCaiSOHF_WMEFXw_d-5">
          <mxGeometry relative="1" as="geometry" />
        </mxCell>
        <mxCell id="6KjLCaiSOHF_WMEFXw_d-1" value="Está conectado a internet?" style="rhombus;whiteSpace=wrap;html=1;shadow=0;fontFamily=Helvetica;fontSize=12;align=center;strokeWidth=1;spacing=6;spacingTop=-4;" vertex="1" parent="WIyWlLk6GJQsqaUBKTNV-1">
          <mxGeometry x="210" y="290" width="140" height="110" as="geometry" />
        </mxCell>
        <mxCell id="6KjLCaiSOHF_WMEFXw_d-12" value="" style="edgeStyle=orthogonalEdgeStyle;rounded=0;orthogonalLoop=1;jettySize=auto;html=1;" edge="1" parent="WIyWlLk6GJQsqaUBKTNV-1" source="6KjLCaiSOHF_WMEFXw_d-3" target="6KjLCaiSOHF_WMEFXw_d-11">
          <mxGeometry relative="1" as="geometry" />
        </mxCell>
        <mxCell id="6KjLCaiSOHF_WMEFXw_d-3" value="Não terá sync" style="whiteSpace=wrap;html=1;shadow=0;strokeWidth=1;spacing=6;spacingTop=-4;" vertex="1" parent="WIyWlLk6GJQsqaUBKTNV-1">
          <mxGeometry x="360" y="390" width="120" height="60" as="geometry" />
        </mxCell>
        <mxCell id="6KjLCaiSOHF_WMEFXw_d-5" value="Realizará sync" style="whiteSpace=wrap;html=1;shadow=0;strokeWidth=1;spacing=6;spacingTop=-4;" vertex="1" parent="WIyWlLk6GJQsqaUBKTNV-1">
          <mxGeometry x="85" y="390" width="120" height="60" as="geometry" />
        </mxCell>
        <mxCell id="6KjLCaiSOHF_WMEFXw_d-7" value="Sim" style="text;html=1;strokeColor=none;fillColor=none;align=center;verticalAlign=middle;whiteSpace=wrap;rounded=0;" vertex="1" parent="WIyWlLk6GJQsqaUBKTNV-1">
          <mxGeometry x="140" y="350" width="60" height="30" as="geometry" />
        </mxCell>
        <mxCell id="6KjLCaiSOHF_WMEFXw_d-8" value="Não" style="text;html=1;strokeColor=none;fillColor=none;align=center;verticalAlign=middle;whiteSpace=wrap;rounded=0;" vertex="1" parent="WIyWlLk6GJQsqaUBKTNV-1">
          <mxGeometry x="370" y="350" width="60" height="30" as="geometry" />
        </mxCell>
        <mxCell id="6KjLCaiSOHF_WMEFXw_d-14" style="edgeStyle=orthogonalEdgeStyle;rounded=0;orthogonalLoop=1;jettySize=auto;html=1;entryX=0.5;entryY=1;entryDx=0;entryDy=0;" edge="1" parent="WIyWlLk6GJQsqaUBKTNV-1" source="6KjLCaiSOHF_WMEFXw_d-11" target="6KjLCaiSOHF_WMEFXw_d-5">
          <mxGeometry relative="1" as="geometry" />
        </mxCell>
        <mxCell id="6KjLCaiSOHF_WMEFXw_d-18" style="edgeStyle=orthogonalEdgeStyle;rounded=0;orthogonalLoop=1;jettySize=auto;html=1;entryX=1;entryY=0.5;entryDx=0;entryDy=0;" edge="1" parent="WIyWlLk6GJQsqaUBKTNV-1" source="6KjLCaiSOHF_WMEFXw_d-11" target="6KjLCaiSOHF_WMEFXw_d-3">
          <mxGeometry relative="1" as="geometry">
            <Array as="points">
              <mxPoint x="500" y="575" />
              <mxPoint x="500" y="420" />
            </Array>
          </mxGeometry>
        </mxCell>
        <mxCell id="6KjLCaiSOHF_WMEFXw_d-11" value="&lt;span style=&quot;&quot;&gt;Está conectado a internet?&lt;/span&gt;" style="rhombus;whiteSpace=wrap;html=1;shadow=0;strokeWidth=1;spacing=6;spacingTop=-4;" vertex="1" parent="WIyWlLk6GJQsqaUBKTNV-1">
          <mxGeometry x="345" y="520" width="150" height="110" as="geometry" />
        </mxCell>
        <mxCell id="6KjLCaiSOHF_WMEFXw_d-20" value="Sync Inicial e Sync Automático" style="swimlane;" vertex="1" parent="WIyWlLk6GJQsqaUBKTNV-1">
          <mxGeometry x="60" y="120" width="460" height="540" as="geometry" />
        </mxCell>
        <mxCell id="6KjLCaiSOHF_WMEFXw_d-21" style="edgeStyle=orthogonalEdgeStyle;rounded=0;orthogonalLoop=1;jettySize=auto;html=1;" edge="1" parent="WIyWlLk6GJQsqaUBKTNV-1" source="6KjLCaiSOHF_WMEFXw_d-22" target="6KjLCaiSOHF_WMEFXw_d-25">
          <mxGeometry relative="1" as="geometry" />
        </mxCell>
        <mxCell id="6KjLCaiSOHF_WMEFXw_d-22" value="Aplicação Rodando" style="rounded=1;whiteSpace=wrap;html=1;fontSize=12;glass=0;strokeWidth=1;shadow=0;" vertex="1" parent="WIyWlLk6GJQsqaUBKTNV-1">
          <mxGeometry x="765" y="170" width="150" height="60" as="geometry" />
        </mxCell>
        <mxCell id="6KjLCaiSOHF_WMEFXw_d-23" value="" style="edgeStyle=orthogonalEdgeStyle;rounded=0;orthogonalLoop=1;jettySize=auto;html=1;" edge="1" parent="WIyWlLk6GJQsqaUBKTNV-1" source="6KjLCaiSOHF_WMEFXw_d-25" target="6KjLCaiSOHF_WMEFXw_d-27">
          <mxGeometry relative="1" as="geometry" />
        </mxCell>
        <mxCell id="6KjLCaiSOHF_WMEFXw_d-24" value="" style="edgeStyle=orthogonalEdgeStyle;rounded=0;orthogonalLoop=1;jettySize=auto;html=1;" edge="1" parent="WIyWlLk6GJQsqaUBKTNV-1" source="6KjLCaiSOHF_WMEFXw_d-25">
          <mxGeometry relative="1" as="geometry">
            <mxPoint x="750" y="420" as="targetPoint" />
          </mxGeometry>
        </mxCell>
        <mxCell id="6KjLCaiSOHF_WMEFXw_d-25" value="Clicou no botão de sync?" style="rhombus;whiteSpace=wrap;html=1;shadow=0;fontFamily=Helvetica;fontSize=12;align=center;strokeWidth=1;spacing=6;spacingTop=-4;" vertex="1" parent="WIyWlLk6GJQsqaUBKTNV-1">
          <mxGeometry x="770" y="290" width="140" height="110" as="geometry" />
        </mxCell>
        <mxCell id="6KjLCaiSOHF_WMEFXw_d-39" value="" style="edgeStyle=orthogonalEdgeStyle;rounded=0;orthogonalLoop=1;jettySize=auto;html=1;" edge="1" parent="WIyWlLk6GJQsqaUBKTNV-1" source="6KjLCaiSOHF_WMEFXw_d-27" target="6KjLCaiSOHF_WMEFXw_d-36">
          <mxGeometry relative="1" as="geometry" />
        </mxCell>
        <mxCell id="6KjLCaiSOHF_WMEFXw_d-27" value="Não terá sync" style="whiteSpace=wrap;html=1;shadow=0;strokeWidth=1;spacing=6;spacingTop=-4;" vertex="1" parent="WIyWlLk6GJQsqaUBKTNV-1">
          <mxGeometry x="920" y="390" width="120" height="60" as="geometry" />
        </mxCell>
        <mxCell id="6KjLCaiSOHF_WMEFXw_d-29" value="Sim" style="text;html=1;strokeColor=none;fillColor=none;align=center;verticalAlign=middle;whiteSpace=wrap;rounded=0;" vertex="1" parent="WIyWlLk6GJQsqaUBKTNV-1">
          <mxGeometry x="700" y="350" width="60" height="30" as="geometry" />
        </mxCell>
        <mxCell id="6KjLCaiSOHF_WMEFXw_d-30" value="Não" style="text;html=1;strokeColor=none;fillColor=none;align=center;verticalAlign=middle;whiteSpace=wrap;rounded=0;" vertex="1" parent="WIyWlLk6GJQsqaUBKTNV-1">
          <mxGeometry x="930" y="350" width="60" height="30" as="geometry" />
        </mxCell>
        <mxCell id="6KjLCaiSOHF_WMEFXw_d-34" value="Sync Manual" style="swimlane;" vertex="1" parent="WIyWlLk6GJQsqaUBKTNV-1">
          <mxGeometry x="620" y="120" width="460" height="640" as="geometry" />
        </mxCell>
        <mxCell id="6KjLCaiSOHF_WMEFXw_d-36" value="Fim" style="rounded=1;whiteSpace=wrap;html=1;fillColor=#f5f5f5;fontColor=#333333;strokeColor=#666666;" vertex="1" parent="6KjLCaiSOHF_WMEFXw_d-34">
          <mxGeometry x="332.5" y="370" width="55" height="20" as="geometry" />
        </mxCell>
        <mxCell id="6KjLCaiSOHF_WMEFXw_d-43" value="Realizará sync" style="whiteSpace=wrap;html=1;shadow=0;strokeWidth=1;spacing=6;spacingTop=-4;" vertex="1" parent="6KjLCaiSOHF_WMEFXw_d-34">
          <mxGeometry x="30" y="470" width="100" height="40" as="geometry" />
        </mxCell>
        <mxCell id="6KjLCaiSOHF_WMEFXw_d-44" value="Fim" style="rounded=1;whiteSpace=wrap;html=1;fillColor=#f5f5f5;fontColor=#333333;strokeColor=#666666;" vertex="1" parent="6KjLCaiSOHF_WMEFXw_d-34">
          <mxGeometry x="52.5" y="540" width="55" height="20" as="geometry" />
        </mxCell>
        <mxCell id="6KjLCaiSOHF_WMEFXw_d-42" value="" style="edgeStyle=orthogonalEdgeStyle;rounded=0;orthogonalLoop=1;jettySize=auto;html=1;" edge="1" parent="6KjLCaiSOHF_WMEFXw_d-34" source="6KjLCaiSOHF_WMEFXw_d-43" target="6KjLCaiSOHF_WMEFXw_d-44">
          <mxGeometry relative="1" as="geometry" />
        </mxCell>
        <mxCell id="6KjLCaiSOHF_WMEFXw_d-47" style="edgeStyle=orthogonalEdgeStyle;rounded=0;orthogonalLoop=1;jettySize=auto;html=1;exitX=0;exitY=0.5;exitDx=0;exitDy=0;entryX=0.1;entryY=0.023;entryDx=0;entryDy=0;entryPerimeter=0;" edge="1" parent="6KjLCaiSOHF_WMEFXw_d-34" source="6KjLCaiSOHF_WMEFXw_d-45" target="6KjLCaiSOHF_WMEFXw_d-43">
          <mxGeometry relative="1" as="geometry" />
        </mxCell>
        <mxCell id="6KjLCaiSOHF_WMEFXw_d-51" style="edgeStyle=orthogonalEdgeStyle;rounded=0;orthogonalLoop=1;jettySize=auto;html=1;exitX=1;exitY=0.5;exitDx=0;exitDy=0;entryX=0.75;entryY=0;entryDx=0;entryDy=0;" edge="1" parent="6KjLCaiSOHF_WMEFXw_d-34" source="6KjLCaiSOHF_WMEFXw_d-45" target="6KjLCaiSOHF_WMEFXw_d-49">
          <mxGeometry relative="1" as="geometry" />
        </mxCell>
        <mxCell id="6KjLCaiSOHF_WMEFXw_d-45" value="Está conectado a internet?" style="rhombus;whiteSpace=wrap;html=1;shadow=0;fontFamily=Helvetica;fontSize=12;align=center;strokeWidth=1;spacing=6;spacingTop=-4;" vertex="1" parent="6KjLCaiSOHF_WMEFXw_d-34">
          <mxGeometry x="60" y="300" width="140" height="110" as="geometry" />
        </mxCell>
        <mxCell id="6KjLCaiSOHF_WMEFXw_d-49" value="Fim" style="rounded=1;whiteSpace=wrap;html=1;fillColor=#f5f5f5;fontColor=#333333;strokeColor=#666666;" vertex="1" parent="6KjLCaiSOHF_WMEFXw_d-34">
          <mxGeometry x="190" y="440" width="55" height="20" as="geometry" />
        </mxCell>
      </root>
    </mxGraphModel>
  </diagram>
</mxfile>
